<mxfile host="Electron" modified="2024-04-14T00:18:21.232Z" agent="Mozilla/5.0 (Windows NT 10.0; Win64; x64) AppleWebKit/537.36 (KHTML, like Gecko) draw.io/24.1.0 Chrome/120.0.6099.109 Electron/28.1.0 Safari/537.36" etag="Ly5JyriJeKU-kl8gwFTO" version="24.1.0" type="device">
  <diagram name="Page-1" id="7s6Xhe4JHk65s6TuYxJA">
    <mxGraphModel dx="1050" dy="621" grid="1" gridSize="10" guides="1" tooltips="1" connect="1" arrows="1" fold="1" page="1" pageScale="1" pageWidth="827" pageHeight="1169" math="0" shadow="0">
      <root>
        <mxCell id="0" />
        <mxCell id="1" parent="0" />
        <mxCell id="XSpYWGMBS3I3ysCbx3dT-1" value="" style="ellipse;html=1;" vertex="1" parent="1">
          <mxGeometry x="380" y="70" width="30" height="30" as="geometry" />
        </mxCell>
        <mxCell id="XSpYWGMBS3I3ysCbx3dT-2" value="" style="endArrow=open;html=1;rounded=0;align=center;verticalAlign=top;endFill=0;labelBackgroundColor=none;endSize=6;entryX=0.5;entryY=0;entryDx=0;entryDy=0;" edge="1" parent="1" source="XSpYWGMBS3I3ysCbx3dT-1" target="XSpYWGMBS3I3ysCbx3dT-4">
          <mxGeometry relative="1" as="geometry">
            <mxPoint x="395" y="160" as="targetPoint" />
          </mxGeometry>
        </mxCell>
        <mxCell id="XSpYWGMBS3I3ysCbx3dT-3" style="edgeStyle=orthogonalEdgeStyle;rounded=0;orthogonalLoop=1;jettySize=auto;html=1;exitX=0.5;exitY=1;exitDx=0;exitDy=0;" edge="1" parent="1" source="XSpYWGMBS3I3ysCbx3dT-4" target="XSpYWGMBS3I3ysCbx3dT-6">
          <mxGeometry relative="1" as="geometry" />
        </mxCell>
        <mxCell id="XSpYWGMBS3I3ysCbx3dT-4" value="Prikaz ekrana za upravljanje obavijestima" style="rounded=1;whiteSpace=wrap;html=1;" vertex="1" parent="1">
          <mxGeometry x="335" y="170" width="120" height="60" as="geometry" />
        </mxCell>
        <mxCell id="XSpYWGMBS3I3ysCbx3dT-5" style="edgeStyle=orthogonalEdgeStyle;rounded=0;orthogonalLoop=1;jettySize=auto;html=1;exitX=0.5;exitY=1;exitDx=0;exitDy=0;entryX=0.5;entryY=0;entryDx=0;entryDy=0;" edge="1" parent="1" source="XSpYWGMBS3I3ysCbx3dT-6" target="XSpYWGMBS3I3ysCbx3dT-7">
          <mxGeometry relative="1" as="geometry" />
        </mxCell>
        <mxCell id="XSpYWGMBS3I3ysCbx3dT-6" value="Dohvat svih obavijesti iz baze podataka" style="rounded=1;whiteSpace=wrap;html=1;" vertex="1" parent="1">
          <mxGeometry x="335" y="300" width="120" height="60" as="geometry" />
        </mxCell>
        <mxCell id="XSpYWGMBS3I3ysCbx3dT-7" value="Prikaz liste svih obavijesti" style="rounded=1;whiteSpace=wrap;html=1;" vertex="1" parent="1">
          <mxGeometry x="335" y="430" width="120" height="60" as="geometry" />
        </mxCell>
        <mxCell id="XSpYWGMBS3I3ysCbx3dT-8" style="edgeStyle=orthogonalEdgeStyle;rounded=0;orthogonalLoop=1;jettySize=auto;html=1;exitX=0.5;exitY=1;exitDx=0;exitDy=0;entryX=0.5;entryY=0;entryDx=0;entryDy=0;" edge="1" parent="1" source="XSpYWGMBS3I3ysCbx3dT-10" target="XSpYWGMBS3I3ysCbx3dT-19">
          <mxGeometry relative="1" as="geometry" />
        </mxCell>
        <mxCell id="XSpYWGMBS3I3ysCbx3dT-9" value="Da" style="edgeLabel;html=1;align=center;verticalAlign=middle;resizable=0;points=[];" vertex="1" connectable="0" parent="XSpYWGMBS3I3ysCbx3dT-8">
          <mxGeometry x="-0.12" y="-1" relative="1" as="geometry">
            <mxPoint as="offset" />
          </mxGeometry>
        </mxCell>
        <mxCell id="XSpYWGMBS3I3ysCbx3dT-10" value="" style="html=1;align=center;verticalAlign=top;rounded=1;absoluteArcSize=1;arcSize=20;dashed=1;whiteSpace=wrap;" vertex="1" parent="1">
          <mxGeometry x="150" y="530" width="490" height="280" as="geometry" />
        </mxCell>
        <mxCell id="XSpYWGMBS3I3ysCbx3dT-11" style="edgeStyle=orthogonalEdgeStyle;rounded=0;orthogonalLoop=1;jettySize=auto;html=1;exitX=0;exitY=0.5;exitDx=0;exitDy=0;exitPerimeter=0;entryX=0.5;entryY=0;entryDx=0;entryDy=0;entryPerimeter=0;" edge="1" parent="1" source="XSpYWGMBS3I3ysCbx3dT-15" target="XSpYWGMBS3I3ysCbx3dT-26">
          <mxGeometry relative="1" as="geometry">
            <mxPoint x="329.96" y="585" as="sourcePoint" />
            <mxPoint x="234" y="650" as="targetPoint" />
            <Array as="points">
              <mxPoint x="330" y="597" />
              <mxPoint x="230" y="597" />
            </Array>
          </mxGeometry>
        </mxCell>
        <mxCell id="XSpYWGMBS3I3ysCbx3dT-12" value="Slanje nove obavijesti" style="edgeLabel;html=1;align=center;verticalAlign=middle;resizable=0;points=[];" vertex="1" connectable="0" parent="XSpYWGMBS3I3ysCbx3dT-11">
          <mxGeometry x="-0.1111" relative="1" as="geometry">
            <mxPoint as="offset" />
          </mxGeometry>
        </mxCell>
        <mxCell id="XSpYWGMBS3I3ysCbx3dT-13" style="edgeStyle=orthogonalEdgeStyle;rounded=0;orthogonalLoop=1;jettySize=auto;html=1;exitX=1;exitY=0.5;exitDx=0;exitDy=0;exitPerimeter=0;entryX=0.5;entryY=0;entryDx=0;entryDy=0;entryPerimeter=0;" edge="1" parent="1" source="XSpYWGMBS3I3ysCbx3dT-15" target="XSpYWGMBS3I3ysCbx3dT-27">
          <mxGeometry relative="1" as="geometry">
            <mxPoint x="560" y="650" as="targetPoint" />
            <Array as="points">
              <mxPoint x="550" y="598" />
            </Array>
          </mxGeometry>
        </mxCell>
        <mxCell id="XSpYWGMBS3I3ysCbx3dT-14" value="Pregled pojedinačne&amp;nbsp;&lt;div&gt;obavijesti&lt;/div&gt;" style="edgeLabel;html=1;align=center;verticalAlign=middle;resizable=0;points=[];" vertex="1" connectable="0" parent="XSpYWGMBS3I3ysCbx3dT-13">
          <mxGeometry x="-0.1551" y="-4" relative="1" as="geometry">
            <mxPoint y="-4" as="offset" />
          </mxGeometry>
        </mxCell>
        <mxCell id="XSpYWGMBS3I3ysCbx3dT-15" value="&lt;font style=&quot;font-size: 10px;&quot;&gt;Odabir akcije&lt;/font&gt;" style="strokeWidth=2;html=1;shape=mxgraph.flowchart.decision;whiteSpace=wrap;" vertex="1" parent="1">
          <mxGeometry x="366.25" y="570" width="57.5" height="55" as="geometry" />
        </mxCell>
        <mxCell id="XSpYWGMBS3I3ysCbx3dT-16" value="Loop |Sve dok zaposlenik&lt;div&gt;upravlja sustavom&lt;/div&gt;" style="text;html=1;align=center;verticalAlign=middle;whiteSpace=wrap;rounded=0;" vertex="1" parent="1">
          <mxGeometry x="150" y="540" width="160" height="10" as="geometry" />
        </mxCell>
        <mxCell id="XSpYWGMBS3I3ysCbx3dT-17" value="&lt;font style=&quot;font-size: 10px;&quot;&gt;Kraj upravljanja&lt;/font&gt;" style="strokeWidth=2;html=1;shape=mxgraph.flowchart.decision;whiteSpace=wrap;" vertex="1" parent="1">
          <mxGeometry x="366.25" y="755" width="57.5" height="55" as="geometry" />
        </mxCell>
        <mxCell id="XSpYWGMBS3I3ysCbx3dT-18" style="edgeStyle=orthogonalEdgeStyle;rounded=0;orthogonalLoop=1;jettySize=auto;html=1;exitX=0.5;exitY=1;exitDx=0;exitDy=0;" edge="1" parent="1" source="XSpYWGMBS3I3ysCbx3dT-19" target="XSpYWGMBS3I3ysCbx3dT-28">
          <mxGeometry relative="1" as="geometry" />
        </mxCell>
        <mxCell id="XSpYWGMBS3I3ysCbx3dT-19" value="Završetak upravljanja obavijestima" style="rounded=1;whiteSpace=wrap;html=1;" vertex="1" parent="1">
          <mxGeometry x="335" y="860" width="120" height="60" as="geometry" />
        </mxCell>
        <mxCell id="XSpYWGMBS3I3ysCbx3dT-20" style="edgeStyle=orthogonalEdgeStyle;rounded=0;orthogonalLoop=1;jettySize=auto;html=1;exitX=0.5;exitY=1;exitDx=0;exitDy=0;" edge="1" parent="1" source="XSpYWGMBS3I3ysCbx3dT-7" target="XSpYWGMBS3I3ysCbx3dT-15">
          <mxGeometry relative="1" as="geometry" />
        </mxCell>
        <mxCell id="XSpYWGMBS3I3ysCbx3dT-21" style="edgeStyle=orthogonalEdgeStyle;rounded=0;orthogonalLoop=1;jettySize=auto;html=1;exitX=1;exitY=0.5;exitDx=0;exitDy=0;exitPerimeter=0;entryX=0.5;entryY=0;entryDx=0;entryDy=0;entryPerimeter=0;" edge="1" parent="1" source="XSpYWGMBS3I3ysCbx3dT-17" target="XSpYWGMBS3I3ysCbx3dT-15">
          <mxGeometry relative="1" as="geometry">
            <Array as="points">
              <mxPoint x="620" y="783" />
              <mxPoint x="620" y="550" />
              <mxPoint x="395" y="550" />
            </Array>
          </mxGeometry>
        </mxCell>
        <mxCell id="XSpYWGMBS3I3ysCbx3dT-22" value="Ne" style="edgeLabel;html=1;align=center;verticalAlign=middle;resizable=0;points=[];" vertex="1" connectable="0" parent="XSpYWGMBS3I3ysCbx3dT-21">
          <mxGeometry x="-0.123" y="-4" relative="1" as="geometry">
            <mxPoint as="offset" />
          </mxGeometry>
        </mxCell>
        <mxCell id="XSpYWGMBS3I3ysCbx3dT-23" style="edgeStyle=orthogonalEdgeStyle;rounded=0;orthogonalLoop=1;jettySize=auto;html=1;exitX=0.5;exitY=1;exitDx=0;exitDy=0;entryX=0.5;entryY=0;entryDx=0;entryDy=0;entryPerimeter=0;exitPerimeter=0;" edge="1" parent="1" source="XSpYWGMBS3I3ysCbx3dT-26" target="XSpYWGMBS3I3ysCbx3dT-17">
          <mxGeometry relative="1" as="geometry">
            <mxPoint x="230" y="710" as="sourcePoint" />
            <Array as="points">
              <mxPoint x="230" y="730" />
              <mxPoint x="395" y="730" />
            </Array>
          </mxGeometry>
        </mxCell>
        <mxCell id="XSpYWGMBS3I3ysCbx3dT-24" style="edgeStyle=orthogonalEdgeStyle;rounded=0;orthogonalLoop=1;jettySize=auto;html=1;exitX=0.5;exitY=1;exitDx=0;exitDy=0;exitPerimeter=0;entryX=0.5;entryY=0;entryDx=0;entryDy=0;entryPerimeter=0;" edge="1" parent="1" source="XSpYWGMBS3I3ysCbx3dT-15" target="XSpYWGMBS3I3ysCbx3dT-17">
          <mxGeometry relative="1" as="geometry" />
        </mxCell>
        <mxCell id="XSpYWGMBS3I3ysCbx3dT-25" style="edgeStyle=orthogonalEdgeStyle;rounded=0;orthogonalLoop=1;jettySize=auto;html=1;exitX=0.5;exitY=1;exitDx=0;exitDy=0;entryX=0.5;entryY=0;entryDx=0;entryDy=0;entryPerimeter=0;exitPerimeter=0;" edge="1" parent="1" source="XSpYWGMBS3I3ysCbx3dT-27" target="XSpYWGMBS3I3ysCbx3dT-17">
          <mxGeometry relative="1" as="geometry">
            <mxPoint x="540" y="710" as="sourcePoint" />
            <Array as="points">
              <mxPoint x="550" y="730" />
              <mxPoint x="395" y="730" />
            </Array>
          </mxGeometry>
        </mxCell>
        <mxCell id="XSpYWGMBS3I3ysCbx3dT-26" value=" UC18 - Slanje  nove obavijesti" style="points=[[0.25,0,0],[0.5,0,0],[0.75,0,0],[1,0.25,0],[1,0.5,0],[1,0.75,0],[0.75,1,0],[0.5,1,0],[0.25,1,0],[0,0.75,0],[0,0.5,0],[0,0.25,0]];shape=mxgraph.bpmn.task;whiteSpace=wrap;rectStyle=rounded;size=10;bpmnShapeType=call;isLoopSub=1;" vertex="1" parent="1">
          <mxGeometry x="180" y="630" width="120" height="80" as="geometry" />
        </mxCell>
        <mxCell id="XSpYWGMBS3I3ysCbx3dT-27" value="UC19 - Pregled pojedinačne obavijesti" style="points=[[0.25,0,0],[0.5,0,0],[0.75,0,0],[1,0.25,0],[1,0.5,0],[1,0.75,0],[0.75,1,0],[0.5,1,0],[0.25,1,0],[0,0.75,0],[0,0.5,0],[0,0.25,0]];shape=mxgraph.bpmn.task;whiteSpace=wrap;rectStyle=rounded;size=10;bpmnShapeType=call;isLoopSub=1;" vertex="1" parent="1">
          <mxGeometry x="490" y="630" width="120" height="80" as="geometry" />
        </mxCell>
        <mxCell id="XSpYWGMBS3I3ysCbx3dT-28" value="" style="ellipse;html=1;shape=endState;fillColor=strokeColor;" vertex="1" parent="1">
          <mxGeometry x="380" y="980" width="30" height="30" as="geometry" />
        </mxCell>
      </root>
    </mxGraphModel>
  </diagram>
</mxfile>
